<svg width="50" height="50" viewBox="0 0 50 50" fill="none" xmlns="http://www.w3.org/2000/svg">
<path d="M41.5625 43.75C42.1875 43.75 42.7083 43.5417 43.125 43.125C43.5417 42.7083 43.75 42.1875 43.75 41.5625V33.125C43.75 32.6389 43.5938 32.2132 43.2813 31.8479C42.9688 31.484 42.5694 31.25 42.0833 31.1458L34.8958 29.6875C34.4097 29.6181 33.9146 29.6611 33.4104 29.8167C32.9076 29.9736 32.5 30.2083 32.1875 30.5208L27.2917 35.4167C24.6528 33.8194 22.2396 31.9271 20.0521 29.7396C17.8646 27.5521 16.0417 25.2083 14.5833 22.7083L19.5833 17.6042C19.8958 17.2917 20.0958 16.9354 20.1833 16.5354C20.2694 16.1368 20.2778 15.6944 20.2083 15.2083L18.8542 7.91667C18.7847 7.43056 18.559 7.03125 18.1771 6.71875C17.7951 6.40625 17.3611 6.25 16.875 6.25H8.4375C7.8125 6.25 7.29167 6.45833 6.875 6.875C6.45833 7.29167 6.25 7.8125 6.25 8.4375C6.25 12.9167 7.24861 17.2826 9.24583 21.5354C11.2417 25.7896 13.8806 29.5569 17.1625 32.8375C20.4431 36.1194 24.2097 38.7583 28.4625 40.7542C32.7167 42.7514 37.0833 43.75 41.5625 43.75Z" fill="#406D8A"/>
</svg>
