<svg width="383" height="49" viewBox="0 0 383 49" fill="none" xmlns="http://www.w3.org/2000/svg">
<path d="M10.2812 13.4688C9.59375 13.9688 9.25 14.5312 9.25 15.1562C9.25 15.7604 9.70833 16.0625 10.625 16.0625C11.0208 16.0625 11.5312 15.9479 12.1562 15.7188H12.1875C12.2917 15.7188 12.3438 15.9375 12.3438 16.375C12.3438 16.7917 12.3021 17.0417 12.2188 17.125C10.0729 18.6458 8.26042 19.4062 6.78125 19.4062C5.30208 19.4062 4.22917 18.9896 3.5625 18.1562C2.89583 17.3229 2.5625 16.2396 2.5625 14.9062C2.5625 13.5521 3.30208 12.125 4.78125 10.625C6.26042 9.10417 8.25 7.70833 10.75 6.4375C13.25 5.14583 16.3438 4.08333 20.0312 3.25C23.7396 2.41667 27.8958 2 32.5 2C37.125 2 40.9896 2.90625 44.0938 4.71875C47.1979 6.51042 48.75 8.5625 48.75 10.875C48.75 13.1667 47.9375 15.5 46.3125 17.875C44.7083 20.25 42.6875 22.3229 40.25 24.0938C37.8333 25.8438 35.1458 27.2812 32.1875 28.4062C29.2292 29.5312 26.5833 30.0938 24.25 30.0938C21.9167 30.0938 20.1042 29.1562 18.8125 27.2812C15.6458 32.2604 13.5 35.6667 12.375 37.5C11.25 39.3125 10.2917 40.8438 9.5 42.0938C8.72917 43.3229 8.125 44.2917 7.6875 45C7.27083 45.7083 7.05208 46.0729 7.03125 46.0938C6.59375 46.5729 6.125 46.8125 5.625 46.8125L4.09375 47.0938L3.34375 47.0312H2.8125C1.58333 47.0312 0.96875 46.6458 0.96875 45.875C0.96875 44.8958 3.02083 41.2083 7.125 34.8125C11.2292 28.4167 15.0938 22.6146 18.7188 17.4062C22.3646 12.1979 24.4896 9.27083 25.0938 8.625C25.6979 7.97917 26.2292 7.60417 26.6875 7.5C27.1667 7.375 27.9271 7.3125 28.9688 7.3125H30.5312C30.8021 7.3125 30.9375 7.53125 30.9375 7.96875C30.9375 8.38542 30.8854 8.67708 30.7812 8.84375C28.9479 11.4062 25.6354 16.4688 20.8438 24.0312C21.0104 24.3646 21.2812 24.5729 21.6562 24.6562C22.0521 24.7396 22.4688 24.7812 22.9062 24.7812H23.8125C25.7292 24.7812 27.8021 24.3229 30.0312 23.4062C32.2604 22.4688 34.2188 21.3542 35.9062 20.0625C37.5938 18.7708 39 17.4271 40.125 16.0312C41.2708 14.6146 41.8438 13.4062 41.8438 12.4062C41.8438 11.4062 41.5312 10.5104 40.9062 9.71875C40.2812 8.92708 39.4271 8.30208 38.3438 7.84375C36.2188 6.94792 33.6354 6.5 30.5938 6.5C27.5729 6.5 23.9167 7.29167 19.625 8.875C15.3542 10.4375 12.2396 11.9688 10.2812 13.4688ZM60.3438 23.1875C60.9688 23.1875 61.6042 23.4688 62.25 24.0312C62.9167 24.5938 63.25 25.4583 63.25 26.625C63.25 27.7708 62.8438 29.2708 62.0312 31.125C61.2188 32.9583 60.1042 34.8333 58.6875 36.75C57.2708 38.6458 55.7083 40.4375 54 42.125C52.3125 43.7917 50.4792 45.1667 48.5 46.25C46.5417 47.3125 44.7604 47.8438 43.1562 47.8438C41.5521 47.8438 40.2604 47.3438 39.2812 46.3438C38.3229 45.3229 37.8438 43.9167 37.8438 42.125C37.8438 40.3125 38.2812 38.3125 39.1562 36.125C40.0521 33.9375 41.1979 32.0104 42.5938 30.3438C43.9896 28.6562 45.5 27.1458 47.125 25.8125C50.5208 23.0833 53.5 21.7188 56.0625 21.7188C57.2083 21.7188 58.0729 22 58.6562 22.5625C58.8646 22.75 58.9688 22.9167 58.9688 23.0625V23.25C59.2604 23.2083 59.7188 23.1875 60.3438 23.1875ZM57.1875 27.3438H56.9688C56.2396 27.3438 55.875 26.8125 55.875 25.75C54.3542 26.25 52.7604 27.125 51.0938 28.375C49.4271 29.625 47.9375 31.1042 46.625 32.8125C43.9583 36.2292 42.6042 39.1146 42.5625 41.4688C42.5625 42.6354 42.9896 43.2188 43.8438 43.2188C44.6979 43.2188 45.9688 42.6562 47.6562 41.5312C49.3438 40.4062 51.0104 38.8021 52.6562 36.7188C54.3229 34.6354 55.5625 32.8333 56.375 31.3125C57.2083 29.7708 57.625 28.7292 57.625 28.1875C57.625 27.625 57.4792 27.3438 57.1875 27.3438ZM89.0312 37.1875C89.4271 37.1875 89.6667 37.4896 89.75 38.0938C89.8333 38.6979 89.875 39.3229 89.875 39.9688C89.875 40.6146 89.8125 41.0625 89.6875 41.3125C89.0833 42.4792 87.7604 43.9062 85.7188 45.5938C83.6771 47.2604 81.7396 48.0938 79.9062 48.0938C78.7812 48.0938 77.7396 47.75 76.7812 47.0625C75.8229 46.3958 75.3438 45.2188 75.3438 43.5312C75.3438 41.8438 75.7917 40.1875 76.6875 38.5625C71.5208 45.0417 67.4688 48.2812 64.5312 48.2812C63.3646 48.2812 62.4167 47.8646 61.6875 47.0312C60.9792 46.1979 60.625 45.3438 60.625 44.4688C60.625 43.5729 60.75 42.6562 61 41.7188C61.25 40.7604 61.5104 39.9062 61.7812 39.1562C62.0729 38.4062 62.4896 37.4792 63.0312 36.375C63.5938 35.2708 64.0104 34.4688 64.2812 33.9688C64.5521 33.4688 64.9792 32.7188 65.5625 31.7188C66.1667 30.6979 66.9479 29.3333 67.9062 27.625C68.8854 25.9167 69.6875 24.6562 70.3125 23.8438C70.9583 23.0104 71.5833 22.5938 72.1875 22.5938C72.7917 22.5729 73.3229 22.8125 73.7812 23.3125C74.2396 23.8125 74.4688 24.2188 74.4688 24.5312C74.4688 24.8438 73.7708 26.25 72.375 28.75C68.25 36.2083 66.1875 40.5521 66.1875 41.7812C66.1875 42.0938 66.3021 42.25 66.5312 42.25C67.5312 42.25 70.0208 40.0833 74 35.75C77.9792 31.4167 80.2812 28.6458 80.9062 27.4375C81.5312 26.2083 82.1354 25.1771 82.7188 24.3438C83.3229 23.5104 83.7708 23 84.0625 22.8125C84.9583 22.2292 86.1146 21.9167 87.5312 21.875C87.7604 21.875 87.9375 21.8854 88.0625 21.9062C88.1875 21.9271 88.3333 22.1042 88.5 22.4375C88.6667 22.7708 88.75 23.0312 88.75 23.2188C88.5625 23.8021 87.7292 25.3542 86.25 27.875C84.7917 30.3958 83.9792 31.8229 83.8125 32.1562C81.3542 37.2396 80.125 40.5521 80.125 42.0938C80.125 42.9688 80.4583 43.4062 81.125 43.4062C82.3333 43.2396 83.7917 42.2708 85.5 40.5C86.125 39.8542 86.7396 39.1979 87.3438 38.5312C87.9688 37.8646 88.3542 37.4792 88.5 37.375C88.6458 37.25 88.8229 37.1875 89.0312 37.1875ZM91.3125 40.75L91.2812 41.25C91.2812 41.7708 91.4792 42.2188 91.875 42.5938C92.2708 42.9688 92.6354 43.1562 92.9688 43.1562C95.4688 43.1562 97.6771 42.7812 99.5938 42.0312C101.531 41.2812 102.5 40.5312 102.5 39.7812C102.5 39.4271 102.146 39.125 101.438 38.875C100.75 38.6042 99.5729 38.2812 97.9062 37.9062C96.2604 37.5104 95.0625 37.2083 94.3125 37C93.5625 36.7708 92.9688 36.5625 92.5312 36.375C92.0938 36.1875 91.6458 35.9271 91.1875 35.5938C90.2083 34.9062 89.7188 33.8854 89.7188 32.5312C89.7188 31.1562 90.2188 29.8021 91.2188 28.4688C92.2396 27.1146 93.5104 25.9583 95.0312 25C96.5521 24.0417 98.1875 23.1979 99.9375 22.4688C103.396 21.0312 106.302 20.3125 108.656 20.3125C110.969 20.3125 112.396 20.8125 112.938 21.8125C113.104 22.1667 113.188 22.5625 113.188 23V23.2188C113.188 24.3229 112.948 25.1875 112.469 25.8125C112.01 26.4375 111.271 27 110.25 27.5C109.25 28 108.448 28.25 107.844 28.25C107.26 28.25 106.885 28.2083 106.719 28.125C106.573 28.0417 106.448 27.9375 106.344 27.8125C106.24 27.6667 106.104 27.5625 105.938 27.5C105.792 27.4375 105.719 27.2812 105.719 27.0312C105.719 26.7812 105.823 26.5312 106.031 26.2812C106.24 26.0104 106.385 25.7292 106.469 25.4375C105.094 25.5 103.656 25.8229 102.156 26.4062C100.656 26.9688 99.3646 27.6042 98.2812 28.3125C97.2188 29.0208 96.3333 29.6979 95.625 30.3438C94.9167 30.9896 94.5625 31.4688 94.5625 31.7812C94.5625 32.0729 95.0417 32.3125 96 32.5C100.312 33.3542 103.146 34.0938 104.5 34.7188C105.854 35.3438 106.792 36.0521 107.312 36.8438C107.833 37.6354 108.094 38.3542 108.094 39C108.094 40.3333 107.562 41.5938 106.5 42.7812C105.438 43.9688 104.125 44.9375 102.562 45.6875C99.2083 47.3333 96.2812 48.1562 93.7812 48.1562C91.3021 48.1562 89.5833 47.7708 88.625 47C87.6875 46.25 87.2188 45.3542 87.2188 44.3125C87.2188 43.2708 87.4792 42.3125 88 41.4375C88.5417 40.5417 89.2292 40.0938 90.0625 40.0938C90.8958 40.0938 91.3125 40.3125 91.3125 40.75ZM135.281 23.25C136.865 23.25 137.656 23.7917 137.656 24.875C137.656 25.4583 137.521 25.8854 137.25 26.1562C136.979 26.4271 136.396 27.3333 135.5 28.875C134.625 30.3958 133.646 32.3542 132.562 34.75C131.5 37.125 130.812 39.1562 130.5 40.8438C130.438 41.0521 130.406 41.3438 130.406 41.7188C130.406 42.8646 130.719 43.4375 131.344 43.4375C131.969 43.4375 132.708 43.1458 133.562 42.5625C134.417 41.9583 135.177 41.3229 135.844 40.6562C136.51 39.9688 137.156 39.2708 137.781 38.5625C138.427 37.8542 138.812 37.4479 138.938 37.3438C139.062 37.2396 139.25 37.1875 139.5 37.1875C139.896 37.1875 140.135 37.4896 140.219 38.0938C140.302 38.6979 140.344 39.3229 140.344 39.9688C140.344 40.6146 140.281 41.0625 140.156 41.3125C139.552 42.5 138.219 43.9271 136.156 45.5938C134.115 47.2604 132.25 48.0938 130.562 48.0938C128.896 48.0938 127.667 47.5833 126.875 46.5625C126.083 45.5417 125.688 44.4167 125.688 43.1875C125.688 41.9375 125.896 40.8438 126.312 39.9062C124.583 42.1562 122.594 44.0625 120.344 45.625C118.115 47.1875 116.292 47.9688 114.875 47.9688C113.458 47.9688 112.302 47.5417 111.406 46.6875C110.26 45.625 109.688 44.1562 109.688 42.2812C109.688 40.3854 110.104 38.4896 110.938 36.5938C111.792 34.6771 112.906 32.9375 114.281 31.375C115.656 29.7917 117.167 28.3542 118.812 27.0625C122.271 24.3542 125.458 23 128.375 23C129.5 23 130.417 23.1875 131.125 23.5625C131.833 23.9375 132.281 24.4062 132.469 24.9688C132.969 24.2188 133.385 23.75 133.719 23.5625C134.073 23.3542 134.594 23.25 135.281 23.25ZM131.125 26.7188C127.562 26.7188 123.875 28.6979 120.062 32.6562C118.708 34.0729 117.458 35.7708 116.312 37.75C115.188 39.7292 114.625 41.0833 114.625 41.8125C114.625 42.5417 114.833 42.9062 115.25 42.9062C115.833 42.9062 117.458 41.7604 120.125 39.4688C122.792 37.1562 124.562 35.4583 125.438 34.375C126.396 33.1667 128.292 30.6146 131.125 26.7188ZM176.75 0.15625C177.146 0.15625 177.458 0.28125 177.688 0.53125C177.917 0.78125 178.031 1.04167 178.031 1.3125C178.031 1.5625 177.823 2.04167 177.406 2.75C177.01 3.4375 176.083 4.95833 174.625 7.3125C173.167 9.64583 172.031 11.4792 171.219 12.8125C166.49 20.5 162.781 27 160.094 32.3125C157.406 37.625 156.062 40.8333 156.062 41.9375V42.1875C156.062 43.0417 156.375 43.4688 157 43.4688C157.625 43.4688 158.375 43.1771 159.25 42.5938C160.146 42.0104 160.927 41.3854 161.594 40.7188C162.26 40.0521 162.927 39.3646 163.594 38.6562C164.281 37.9271 164.698 37.5 164.844 37.375C164.99 37.25 165.177 37.1875 165.406 37.1875C165.76 37.1875 165.99 37.4167 166.094 37.875C166.198 38.3125 166.25 38.9375 166.25 39.75C166.25 40.5417 166.188 41.0625 166.062 41.3125C165.458 42.4792 164.125 43.9062 162.062 45.5938C160.021 47.2604 158.083 48.0938 156.25 48.0938C153.125 48.0938 151.562 46.7708 151.562 44.125C151.562 42.4792 152.188 40.3229 153.438 37.6562C151.75 39.8438 150.031 41.7083 148.281 43.25C145.031 46.0833 142.208 47.5 139.812 47.5C138.479 47.5 137.49 47.0312 136.844 46.0938C136.219 45.1562 135.906 43.8125 135.906 42.0625C135.906 40.2917 136.594 38.1771 137.969 35.7188C139.344 33.2604 141.052 31.0521 143.094 29.0938C145.156 27.1146 147.438 25.4688 149.938 24.1562C152.438 22.8229 154.74 22.1562 156.844 22.1562C157.51 22.1562 158.292 22.5625 159.188 23.375C159.792 22.4167 160.906 20.5 162.531 17.625C167.635 9.02083 171.01 3.77083 172.656 1.875C173.531 0.729167 174.896 0.15625 176.75 0.15625ZM157.281 26.3125C154.281 26.9792 151.49 28.375 148.906 30.5C146.323 32.625 144.385 34.8542 143.094 37.1875C141.802 39.5 141.156 41 141.156 41.6875C141.156 42.375 141.302 42.7188 141.594 42.7188C142.844 42.7188 145.938 39.9271 150.875 34.3438C153.333 31.5938 155.469 28.9167 157.281 26.3125ZM187.719 23.25C189.302 23.25 190.094 23.7917 190.094 24.875C190.094 25.4583 189.958 25.8854 189.688 26.1562C189.417 26.4271 188.833 27.3333 187.938 28.875C187.062 30.3958 186.083 32.3542 185 34.75C183.938 37.125 183.25 39.1562 182.938 40.8438C182.875 41.0521 182.844 41.3438 182.844 41.7188C182.844 42.8646 183.156 43.4375 183.781 43.4375C184.406 43.4375 185.146 43.1458 186 42.5625C186.854 41.9583 187.615 41.3229 188.281 40.6562C188.948 39.9688 189.594 39.2708 190.219 38.5625C190.865 37.8542 191.25 37.4479 191.375 37.3438C191.5 37.2396 191.688 37.1875 191.938 37.1875C192.333 37.1875 192.573 37.4896 192.656 38.0938C192.74 38.6979 192.781 39.3229 192.781 39.9688C192.781 40.6146 192.719 41.0625 192.594 41.3125C191.99 42.5 190.656 43.9271 188.594 45.5938C186.552 47.2604 184.688 48.0938 183 48.0938C181.333 48.0938 180.104 47.5833 179.312 46.5625C178.521 45.5417 178.125 44.4167 178.125 43.1875C178.125 41.9375 178.333 40.8438 178.75 39.9062C177.021 42.1562 175.031 44.0625 172.781 45.625C170.552 47.1875 168.729 47.9688 167.312 47.9688C165.896 47.9688 164.74 47.5417 163.844 46.6875C162.698 45.625 162.125 44.1562 162.125 42.2812C162.125 40.3854 162.542 38.4896 163.375 36.5938C164.229 34.6771 165.344 32.9375 166.719 31.375C168.094 29.7917 169.604 28.3542 171.25 27.0625C174.708 24.3542 177.896 23 180.812 23C181.938 23 182.854 23.1875 183.562 23.5625C184.271 23.9375 184.719 24.4062 184.906 24.9688C185.406 24.2188 185.823 23.75 186.156 23.5625C186.51 23.3542 187.031 23.25 187.719 23.25ZM183.562 26.7188C180 26.7188 176.312 28.6979 172.5 32.6562C171.146 34.0729 169.896 35.7708 168.75 37.75C167.625 39.7292 167.062 41.0833 167.062 41.8125C167.062 42.5417 167.271 42.9062 167.688 42.9062C168.271 42.9062 169.896 41.7604 172.562 39.4688C175.229 37.1562 177 35.4583 177.875 34.375C178.833 33.1667 180.729 30.6146 183.562 26.7188ZM246.531 1.6875L248 1.625C248.542 1.625 248.812 1.83333 248.812 2.25C248.812 2.375 248.792 2.46875 248.75 2.53125C238.792 17.1771 229.49 31.5312 220.844 45.5938C220.385 46.3438 219.979 46.7708 219.625 46.875C219.604 46.875 219.5 46.9167 219.312 47C218.271 47.3958 217.542 47.5938 217.125 47.5938C216.708 47.5938 216.479 47.6042 216.438 47.625C216.25 47.8333 216.021 47.9375 215.75 47.9375C215.5 47.9375 215.333 47.9271 215.25 47.9062C215.167 47.9062 214.927 47.8229 214.531 47.6562C214.135 47.5104 213.938 47.3958 213.938 47.3125C213.938 46.2917 213.979 45.6771 214.062 45.4688C214.5 43.9896 216.906 39.8229 221.281 32.9688C225.656 26.0938 230.104 19.3958 234.625 12.875C239.167 6.33333 241.917 2.6875 242.875 1.9375C243.167 1.70833 243.552 1.59375 244.031 1.59375L246.531 1.6875ZM237.938 40.75L237.906 41.25C237.906 41.7708 238.104 42.2188 238.5 42.5938C238.896 42.9688 239.26 43.1562 239.594 43.1562C242.094 43.1562 244.302 42.7812 246.219 42.0312C248.156 41.2812 249.125 40.5312 249.125 39.7812C249.125 39.4271 248.771 39.125 248.062 38.875C247.375 38.6042 246.198 38.2812 244.531 37.9062C242.885 37.5104 241.688 37.2083 240.938 37C240.188 36.7708 239.594 36.5625 239.156 36.375C238.719 36.1875 238.271 35.9271 237.812 35.5938C236.833 34.9062 236.344 33.8854 236.344 32.5312C236.344 31.1562 236.844 29.8021 237.844 28.4688C238.865 27.1146 240.135 25.9583 241.656 25C243.177 24.0417 244.812 23.1979 246.562 22.4688C250.021 21.0312 252.927 20.3125 255.281 20.3125C257.594 20.3125 259.021 20.8125 259.562 21.8125C259.729 22.1667 259.812 22.5625 259.812 23V23.2188C259.812 24.3229 259.573 25.1875 259.094 25.8125C258.635 26.4375 257.896 27 256.875 27.5C255.875 28 255.073 28.25 254.469 28.25C253.885 28.25 253.51 28.2083 253.344 28.125C253.198 28.0417 253.073 27.9375 252.969 27.8125C252.865 27.6667 252.729 27.5625 252.562 27.5C252.417 27.4375 252.344 27.2812 252.344 27.0312C252.344 26.7812 252.448 26.5312 252.656 26.2812C252.865 26.0104 253.01 25.7292 253.094 25.4375C251.719 25.5 250.281 25.8229 248.781 26.4062C247.281 26.9688 245.99 27.6042 244.906 28.3125C243.844 29.0208 242.958 29.6979 242.25 30.3438C241.542 30.9896 241.188 31.4688 241.188 31.7812C241.188 32.0729 241.667 32.3125 242.625 32.5C246.938 33.3542 249.771 34.0938 251.125 34.7188C252.479 35.3438 253.417 36.0521 253.938 36.8438C254.458 37.6354 254.719 38.3542 254.719 39C254.719 40.3333 254.188 41.5938 253.125 42.7812C252.062 43.9688 250.75 44.9375 249.188 45.6875C245.833 47.3333 242.906 48.1562 240.406 48.1562C237.927 48.1562 236.208 47.7708 235.25 47C234.312 46.25 233.844 45.3542 233.844 44.3125C233.844 43.2708 234.104 42.3125 234.625 41.4375C235.167 40.5417 235.854 40.0938 236.688 40.0938C237.521 40.0938 237.938 40.3125 237.938 40.75ZM281.906 23.25C283.49 23.25 284.281 23.7917 284.281 24.875C284.281 25.4583 284.146 25.8854 283.875 26.1562C283.604 26.4271 283.021 27.3333 282.125 28.875C281.25 30.3958 280.271 32.3542 279.188 34.75C278.125 37.125 277.438 39.1562 277.125 40.8438C277.062 41.0521 277.031 41.3438 277.031 41.7188C277.031 42.8646 277.344 43.4375 277.969 43.4375C278.594 43.4375 279.333 43.1458 280.188 42.5625C281.042 41.9583 281.802 41.3229 282.469 40.6562C283.135 39.9688 283.781 39.2708 284.406 38.5625C285.052 37.8542 285.438 37.4479 285.562 37.3438C285.688 37.2396 285.875 37.1875 286.125 37.1875C286.521 37.1875 286.76 37.4896 286.844 38.0938C286.927 38.6979 286.969 39.3229 286.969 39.9688C286.969 40.6146 286.906 41.0625 286.781 41.3125C286.177 42.5 284.844 43.9271 282.781 45.5938C280.74 47.2604 278.875 48.0938 277.188 48.0938C275.521 48.0938 274.292 47.5833 273.5 46.5625C272.708 45.5417 272.312 44.4167 272.312 43.1875C272.312 41.9375 272.521 40.8438 272.938 39.9062C271.208 42.1562 269.219 44.0625 266.969 45.625C264.74 47.1875 262.917 47.9688 261.5 47.9688C260.083 47.9688 258.927 47.5417 258.031 46.6875C256.885 45.625 256.312 44.1562 256.312 42.2812C256.312 40.3854 256.729 38.4896 257.562 36.5938C258.417 34.6771 259.531 32.9375 260.906 31.375C262.281 29.7917 263.792 28.3542 265.438 27.0625C268.896 24.3542 272.083 23 275 23C276.125 23 277.042 23.1875 277.75 23.5625C278.458 23.9375 278.906 24.4062 279.094 24.9688C279.594 24.2188 280.01 23.75 280.344 23.5625C280.698 23.3542 281.219 23.25 281.906 23.25ZM277.75 26.7188C274.188 26.7188 270.5 28.6979 266.688 32.6562C265.333 34.0729 264.083 35.7708 262.938 37.75C261.812 39.7292 261.25 41.0833 261.25 41.8125C261.25 42.5417 261.458 42.9062 261.875 42.9062C262.458 42.9062 264.083 41.7604 266.75 39.4688C269.417 37.1562 271.188 35.4583 272.062 34.375C273.021 33.1667 274.917 30.6146 277.75 26.7188ZM309.844 2.40625C305.448 9.01042 301.167 15.9167 297 23.125C297.958 22.625 299.031 22.2708 300.219 22.0625C301.427 21.8333 302.271 21.7188 302.75 21.7188C303.25 21.7188 303.677 21.7396 304.031 21.7812C304.385 21.8021 304.833 21.9167 305.375 22.125C305.938 22.3125 306.417 22.5833 306.812 22.9375C307.771 23.7917 308.25 25 308.25 26.5625C308.25 28.125 307.823 29.8438 306.969 31.7188C306.135 33.5729 304.99 35.4375 303.531 37.3125C302.094 39.1875 300.51 40.9375 298.781 42.5625C297.073 44.1667 295.229 45.4792 293.25 46.5C291.271 47.5208 289.427 48.0312 287.719 48.0312C286.927 48.0312 286.01 47.5208 284.969 46.5C283.948 45.4792 283.438 44.1354 283.438 42.4688C283.438 40.8021 284.156 38.2188 285.594 34.7188C287.031 31.2188 288.771 27.6667 290.812 24.0625C292.875 20.4375 294.969 16.9062 297.094 13.4688C299.24 10.0312 301.062 7.21875 302.562 5.03125C304.062 2.84375 304.979 1.58333 305.312 1.25C305.646 0.916667 306.25 0.635417 307.125 0.40625C308.021 0.177083 308.792 0.0729167 309.438 0.09375C310.083 0.09375 310.406 0.385417 310.406 0.96875C310.406 1.34375 310.219 1.82292 309.844 2.40625ZM301.406 32.4062C302.26 30.9062 302.688 29.5417 302.688 28.3125C302.688 27.0833 302.292 26.4688 301.5 26.4688C300.729 26.4688 299.531 26.8125 297.906 27.5C296.302 28.1667 295.385 28.5 295.156 28.5C294.927 28.5 294.625 28.3125 294.25 27.9375C290.188 35.25 288.156 39.9167 288.156 41.9375C288.156 42.875 288.458 43.3438 289.062 43.3438C290.5 43.3438 292.573 42.1458 295.281 39.75C297.99 37.3333 300.031 34.8854 301.406 32.4062ZM329.5 23.625C329.5 25 328.938 26.2083 327.812 27.25C326.708 28.2917 325.448 28.8125 324.031 28.8125C323.573 28.8125 323.271 28.7083 323.125 28.5C322.979 28.2708 322.906 27.9792 322.906 27.625C322.906 27.2708 322.948 26.9271 323.031 26.5938C322.281 26.8438 321.448 27.2292 320.531 27.75C319.615 28.2708 318.49 29.0417 317.156 30.0625C315.823 31.0833 315.156 31.8438 315.156 32.3438C315.156 32.5104 315.396 32.5938 315.875 32.5938C316.375 32.5938 317.135 32.4271 318.156 32.0938C319.177 31.7396 319.885 31.5625 320.281 31.5625C320.698 31.5625 320.969 31.5833 321.094 31.625C321.365 31.7708 321.656 32.0938 321.969 32.5938C322.281 33.0729 322.438 33.4583 322.438 33.75C322.438 34.0208 322.167 34.3854 321.625 34.8438C321.083 35.3021 320.469 35.6562 319.781 35.9062C319.094 36.1354 318.635 36.3125 318.406 36.4375C314.01 38.8958 311.812 40.5833 311.812 41.5C311.812 43.125 313.198 43.9375 315.969 43.9375C317.74 43.9375 319.521 43.375 321.312 42.25C322.833 41.2917 324.198 40.3229 325.406 39.3438C326.635 38.3438 327.406 37.7292 327.719 37.5C328.052 37.2708 328.302 37.1562 328.469 37.1562C329.01 37.1562 329.281 37.7604 329.281 38.9688C329.281 40.1771 329.208 40.9792 329.062 41.375C328.917 41.75 328.5 42.2188 327.812 42.7812C323.354 46.4062 319.135 48.2188 315.156 48.2188C313.031 48.2188 311.333 47.9271 310.062 47.3438C307.729 46.2812 306.562 44.6562 306.562 42.4688C306.562 39.5938 308.552 37.4167 312.531 35.9375C311.74 35.5833 311.229 35.1354 311 34.5938C310.771 34.0312 310.656 33.1458 310.656 31.9375C310.656 30.7083 311.219 29.4167 312.344 28.0625C313.49 26.6875 314.885 25.5625 316.531 24.6875C320.198 22.7083 323.469 21.7188 326.344 21.7188C327.031 21.7188 327.729 21.8854 328.438 22.2188C329.146 22.5521 329.5 23.0208 329.5 23.625ZM354.219 0.09375C355.219 0.09375 356.094 0.395833 356.844 1C357.615 1.58333 358 2.45833 358 3.625C358 4.79167 357.354 6.625 356.062 9.125C354.771 11.6042 353.219 14.1458 351.406 16.75C349.594 19.3333 347.542 22.0833 345.25 25C341.625 29.625 338.146 33.7812 334.812 37.4688C334.792 37.7188 334.698 38.1875 334.531 38.875C334.385 39.5417 334.312 40.2188 334.312 40.9062C334.312 41.5938 334.625 42.2188 335.25 42.7812C335.896 43.3229 336.688 43.5938 337.625 43.5938C338.562 43.5938 339.562 43.2604 340.625 42.5938C341.708 41.9271 342.646 41.1875 343.438 40.375C345.521 38.2292 346.812 37.1562 347.312 37.1562C347.812 37.1562 348.062 37.9167 348.062 39.4375V40.0625C348.062 40.875 347.917 41.4688 347.625 41.8438C345.875 43.9896 343.906 45.5938 341.719 46.6562C339.531 47.6979 337.458 48.2188 335.5 48.2188C333.542 48.2188 332.052 47.625 331.031 46.4375C330.01 45.2292 329.5 43.5833 329.5 41.5C329.5 37.4375 330.583 32.6667 332.75 27.1875C334.938 21.6875 337.396 17.0104 340.125 13.1562C346.271 4.44792 350.969 0.09375 354.219 0.09375ZM352.812 5.28125C352.812 4.96875 352.708 4.8125 352.5 4.8125C351.771 4.8125 349.854 6.89583 346.75 11.0625C343.646 15.2292 341.396 18.5521 340 21.0312C338.625 23.5104 337.323 26.625 336.094 30.375C338.552 27.4583 341.948 22.9167 346.281 16.75C350.635 10.5625 352.812 6.73958 352.812 5.28125ZM370.719 0.09375C371.719 0.09375 372.594 0.395833 373.344 1C374.115 1.58333 374.5 2.45833 374.5 3.625C374.5 4.79167 373.854 6.625 372.562 9.125C371.271 11.6042 369.719 14.1458 367.906 16.75C366.094 19.3333 364.042 22.0833 361.75 25C358.125 29.625 354.646 33.7812 351.312 37.4688C351.292 37.7188 351.198 38.1875 351.031 38.875C350.885 39.5417 350.812 40.2188 350.812 40.9062C350.812 41.5938 351.125 42.2188 351.75 42.7812C352.396 43.3229 353.188 43.5938 354.125 43.5938C355.062 43.5938 356.062 43.2604 357.125 42.5938C358.208 41.9271 359.146 41.1875 359.938 40.375C362.021 38.2292 363.312 37.1562 363.812 37.1562C364.312 37.1562 364.562 37.9167 364.562 39.4375V40.0625C364.562 40.875 364.417 41.4688 364.125 41.8438C362.375 43.9896 360.406 45.5938 358.219 46.6562C356.031 47.6979 353.958 48.2188 352 48.2188C350.042 48.2188 348.552 47.625 347.531 46.4375C346.51 45.2292 346 43.5833 346 41.5C346 37.4375 347.083 32.6667 349.25 27.1875C351.438 21.6875 353.896 17.0104 356.625 13.1562C362.771 4.44792 367.469 0.09375 370.719 0.09375ZM369.312 5.28125C369.312 4.96875 369.208 4.8125 369 4.8125C368.271 4.8125 366.354 6.89583 363.25 11.0625C360.146 15.2292 357.896 18.5521 356.5 21.0312C355.125 23.5104 353.823 26.625 352.594 30.375C355.052 27.4583 358.448 22.9167 362.781 16.75C367.135 10.5625 369.312 6.73958 369.312 5.28125ZM382.812 23.625C382.812 25 382.25 26.2083 381.125 27.25C380.021 28.2917 378.76 28.8125 377.344 28.8125C376.885 28.8125 376.583 28.7083 376.438 28.5C376.292 28.2708 376.219 27.9792 376.219 27.625C376.219 27.2708 376.26 26.9271 376.344 26.5938C375.594 26.8438 374.76 27.2292 373.844 27.75C372.927 28.2708 371.802 29.0417 370.469 30.0625C369.135 31.0833 368.469 31.8438 368.469 32.3438C368.469 32.5104 368.708 32.5938 369.188 32.5938C369.688 32.5938 370.448 32.4271 371.469 32.0938C372.49 31.7396 373.198 31.5625 373.594 31.5625C374.01 31.5625 374.281 31.5833 374.406 31.625C374.677 31.7708 374.969 32.0938 375.281 32.5938C375.594 33.0729 375.75 33.4583 375.75 33.75C375.75 34.0208 375.479 34.3854 374.938 34.8438C374.396 35.3021 373.781 35.6562 373.094 35.9062C372.406 36.1354 371.948 36.3125 371.719 36.4375C367.323 38.8958 365.125 40.5833 365.125 41.5C365.125 43.125 366.51 43.9375 369.281 43.9375C371.052 43.9375 372.833 43.375 374.625 42.25C376.146 41.2917 377.51 40.3229 378.719 39.3438C379.948 38.3438 380.719 37.7292 381.031 37.5C381.365 37.2708 381.615 37.1562 381.781 37.1562C382.323 37.1562 382.594 37.7604 382.594 38.9688C382.594 40.1771 382.521 40.9792 382.375 41.375C382.229 41.75 381.812 42.2188 381.125 42.7812C376.667 46.4062 372.448 48.2188 368.469 48.2188C366.344 48.2188 364.646 47.9271 363.375 47.3438C361.042 46.2812 359.875 44.6562 359.875 42.4688C359.875 39.5938 361.865 37.4167 365.844 35.9375C365.052 35.5833 364.542 35.1354 364.312 34.5938C364.083 34.0312 363.969 33.1458 363.969 31.9375C363.969 30.7083 364.531 29.4167 365.656 28.0625C366.802 26.6875 368.198 25.5625 369.844 24.6875C373.51 22.7083 376.781 21.7188 379.656 21.7188C380.344 21.7188 381.042 21.8854 381.75 22.2188C382.458 22.5521 382.812 23.0208 382.812 23.625Z" fill="url(#paint0_radial_339_15)"/>
<defs>
<radialGradient id="paint0_radial_339_15" cx="0" cy="0" r="1" gradientUnits="userSpaceOnUse" gradientTransform="translate(-9 18.3359) scale(428.744 1526.83)">
<stop/>
<stop offset="1" stop-color="#406D8A"/>
</radialGradient>
</defs>
</svg>
