<svg width="50" height="50" viewBox="0 0 50 50" fill="none" xmlns="http://www.w3.org/2000/svg">
<path d="M25.0003 23.9583C23.619 23.9583 22.2942 23.4096 21.3175 22.4329C20.3407 21.4561 19.792 20.1313 19.792 18.75C19.792 17.3687 20.3407 16.0439 21.3175 15.0672C22.2942 14.0904 23.619 13.5417 25.0003 13.5417C26.3817 13.5417 27.7064 14.0904 28.6832 15.0672C29.6599 16.0439 30.2087 17.3687 30.2087 18.75C30.2087 19.434 30.0739 20.1112 29.8122 20.7432C29.5505 21.3751 29.1668 21.9492 28.6832 22.4329C28.1995 22.9165 27.6254 23.3001 26.9935 23.5619C26.3616 23.8236 25.6843 23.9583 25.0003 23.9583ZM25.0003 4.16667C21.1326 4.16667 17.4233 5.70313 14.6884 8.43803C11.9534 11.1729 10.417 14.8823 10.417 18.75C10.417 29.6875 25.0003 45.8333 25.0003 45.8333C25.0003 45.8333 39.5837 29.6875 39.5837 18.75C39.5837 14.8823 38.0472 11.1729 35.3123 8.43803C32.5774 5.70313 28.8681 4.16667 25.0003 4.16667Z" fill="#406D8A"/>
</svg>
